<svg xmlns="http://www.w3.org/2000/svg" viewBox="0 0 150 400" fill="#0c0c0c" role="img" aria-label="SILENCE">
  <path d="M0,93.52c-.11-11.71,5.54-23.77,13.23-35.26,10.09-15.08,23.59-27.41,38.28-38.75,7.73-5.97,15.64-11.75,23.52-17.57,3.78-2.79,4.84-2.63,7.72.9.92,1.13,1.7,2.37,2.69,3.45,1.83,2,1.22,3.39-.84,4.98-8.95,6.87-16.85,14.6-21.64,24.42-7.03,14.4-9.05,29.11-1.47,43.89,5.36,10.44,13.59,18.18,26.4,21.16,6.63,1.54,13.28.69,19.92.13,9.07-.76,17.32-3.92,25.53-7.18,1.09-.43,2.21-.79,3.31-1.21,2.34-.88,4.44-.74,6.15,1.15.11.13.27.22.4.34,5.61,4.77,5.45,5.78.63,11.11-13.09,14.48-27.15,28.32-37.4,44.74-7.51,12.03-13.18,24.73-15.64,38.45-1.68,9.38-.32,18.57,2.36,27.7,4.9,16.66,14.49,31.03,26.19,44.37,10.13,11.55,18.01,20.32,28.34,31.73,2.41,2.67,3.55,5.55.35,8.32-4.51,4.58-7.14,7.28-11.48,11.98-19.44,21.04-38.78,42.16-58.19,63.22-6.39,6.94-12.9,13.79-19.3,20.72-2.08,2.25-4.58,3.33-7.88,3.31-4.21-.03-8.42.27-12.63.4-.82.03-1.66,0-2.46-.13-2.82-.46-3.2-1.36-1.54-3.51,3.81-4.96,7.71-9.87,11.41-14.9,6.3-8.56,11.62-17.58,15.93-27.14,6.19-13.73,6.49-27.67,2.88-41.83-5.66-22.19-18.35-40.97-35.1-57.64-5.54-5.51-11.61-10.59-17.51-15.8-2.62-2.32-2.77-2.29-.49-5.05,8.99-10.89,17.97-21.77,27.05-32.6,17.6-20.98,35.25-41.94,52.95-62.86,2.22-2.62,4.91-4.91,7.18-7.49.85-.97,1.97-2.77,1.54-3.43-1.11-1.69-2.93-.74-4.6-.09-6.63,2.58-13.22,5.29-20,7.51-10.62,3.46-21.66,3.61-32.78,2.63-11.25-.99-21.05-5.03-29.29-11.85C3.95,117.74-.17,107.39,0,93.52Z"/>
</svg>
