<svg xmlns="http://www.w3.org/2000/svg" viewBox="152 160 476 286" fill="#111111" role="img" aria-label="SILENCE">
  <path d="M163.67,229.97c-.08-7.95,3.76-16.13,8.97-23.92,6.85-10.23,16-18.59,25.97-26.29,5.25-4.05,10.61-7.97,15.96-11.92,2.57-1.9,3.28-1.79,5.24.61.63.77,1.15,1.61,1.82,2.34,1.24,1.36.83,2.3-.57,3.38-6.07,4.66-11.43,9.9-14.68,16.57-4.77,9.77-6.14,19.75-1,29.78,3.63,7.08,9.22,12.34,17.91,14.35,4.5,1.05,9.01.47,13.51.09,6.15-.52,11.75-2.66,17.32-4.87.74-.29,1.5-.54,2.24-.82,1.59-.6,3.01-.5,4.17.78.08.09.18.15.27.23,3.81,3.24,3.7,3.92.43,7.54-8.88,9.82-18.42,19.21-25.37,30.35-5.09,8.16-8.94,16.78-10.61,26.08-1.14,6.36-.22,12.6,1.6,18.79,3.33,11.3,9.83,21.05,17.77,30.1,6.87,7.84,12.22,13.78,19.22,21.52,1.64,1.81,2.41,3.76.24,5.64-3.06,3.11-4.84,4.94-7.79,8.13-13.19,14.28-26.31,28.6-39.48,42.89-4.34,4.71-8.75,9.35-13.09,14.05-1.41,1.53-3.11,2.26-5.35,2.24-2.85-.02-5.71.18-8.57.27-.56.02-1.12,0-1.67-.09-1.91-.31-2.17-.92-1.05-2.38,2.59-3.37,5.23-6.7,7.74-10.11,4.27-5.81,7.88-11.93,10.81-18.41,4.2-9.31,4.4-18.77,1.95-28.38-3.84-15.05-12.45-27.79-23.81-39.1-3.76-3.74-7.87-7.18-11.88-10.72-1.78-1.57-1.88-1.55-.34-3.43,6.1-7.38,12.19-14.77,18.35-22.11,11.94-14.24,23.92-28.45,35.92-42.65,1.5-1.78,3.33-3.33,4.87-5.08.58-.66,1.33-1.88,1.04-2.33-.75-1.15-1.99-.5-3.12-.06-4.5,1.75-8.97,3.59-13.57,5.09-7.21,2.35-14.7,2.45-22.24,1.79-7.63-.67-14.28-3.42-19.87-8.04-6.62-5.47-9.42-12.5-9.3-21.91Z"/>
  <path d="M297.23,275.7v88.28l-2.95,4.21h-14.15l-2.96-3.88v-88.51l3.73-3.77h12.93l3.4,3.67Z"/>
  <path d="M331.83,353.48h22.42l3.21,2.9v8.93l-3.08,2.88h-40.97l-3.69-4.14v-88.56l3.34-3.46h12.75l2.96,3.28v75.02l3.04,3.15Z"/>
  <path d="M381.47,290.1v18.79l3.44,3.33h21.24l3.42,3.06v8.84l-3.42,2.81h-21.73l-2.95,2.96v19.89l2.95,3.03h25.05l3.48,3.35v8.59l-3.6,3.44h-40.52l-3.2-3.93v-88.28l4.06-3.95h39.66l3.6,3.7v8.47l-3.48,3.08h-24.92l-3.07,2.81Z"/>
  <path d="M482.57,368.19h-10.07l-33.36-65.38v61.19l-3.78,4.19h-7.44l-3.67-4.51v-88.28l4.15-3.36h10.73l33.36,65.92v-62.07l4.41-3.85h6.47l4.01,3.85v87.64l-4.82,4.67Z"/>
  <path d="M552.48,280.41c5,5.4,8.51,12.51,10.54,21.32.29,1.26-2.05,3.88-2.05,3.88h-8.98s-3.5-2.31-3.93-3.37c-1.46-3.61-3.42-6.57-5.87-8.88-3.18-3-7.01-4.49-11.47-4.49-3.68,0-6.99,1.27-9.94,3.81-2.95,2.54-5.25,6.18-6.89,10.9-1.64,4.72-2.46,10.26-2.46,16.62s.82,11.76,2.46,16.48c1.64,4.72,3.94,8.36,6.89,10.9,2.95,2.54,6.27,3.81,9.94,3.81,4.46,0,8.28-1.5,11.47-4.49,2.67-2.51,4.75-5.79,6.24-9.84.29-.78,4.33-2.42,4.33-2.42h7.18s3.5,1.95,3.29,2.89c-1.99,9.27-5.58,16.7-10.76,22.31-5.71,6.18-12.89,9.26-21.56,9.26-6.63,0-12.49-2.06-17.57-6.2-5.09-4.13-9.02-9.92-11.81-17.37-2.79-7.44-4.18-15.89-4.18-25.33s1.39-18.02,4.18-25.47c2.79-7.44,6.71-13.23,11.76-17.37,5.05-4.13,10.93-6.2,17.62-6.2,8.66,0,15.85,3.09,21.56,9.26Z"/>
  <path d="M586.87,291.98v17.84l3.15,3.28h21.75l3.2,3.02v9.06l-2.91,2.63h-22.51l-2.67,2.9v20.03l3.24,2.94h25.09l3.14,3.26v9.44l-2.95,2.69h-41.59l-2.78-3.07v-88.81l4.49-4.28h39.49l3.33,3.23v8.68l-3.23,3.35h-24.71l-3.53,3.81Z"/>
</svg>
